<?xml version="1.0" encoding="UTF-8" standalone="no"?>
<!-- Created with Inkscape (http://www.inkscape.org/) -->

<svg
   xmlns:dc="http://purl.org/dc/elements/1.1/"
   xmlns:cc="http://creativecommons.org/ns#"
   xmlns:rdf="http://www.w3.org/1999/02/22-rdf-syntax-ns#"
   xmlns:svg="http://www.w3.org/2000/svg"
   xmlns="http://www.w3.org/2000/svg"
   xmlns:inkscape="http://www.inkscape.org/namespaces/inkscape"
   version="1.1"
   width="337.5"
   height="281.25"
   id="svg2"
   xml:space="preserve"><metadata
     id="metadata8"><rdf:RDF><cc:Work
         rdf:about=""><dc:format>image/svg+xml</dc:format><dc:type
           rdf:resource="http://purl.org/dc/dcmitype/StillImage" /></cc:Work></rdf:RDF></metadata><defs
     id="defs6"><clipPath
       id="clipPath18"><path
         d="M 0,0 270,0 270,225 0,225 0,0 z"
         inkscape:connector-curvature="0"
         id="path20" /></clipPath></defs><g
     transform="matrix(1.25,0,0,-1.25,0,281.25)"
     id="g10"><g
       id="g12" /><g
       id="g14"><g
         clip-path="url(#clipPath18)"
         id="g16"><path
           d="m -112.5,341.5 559,0 0,-783 -559,0 0,783 z"
           inkscape:connector-curvature="0"
           id="path22"
           style="fill:#ffffff;fill-opacity:1;fill-rule:nonzero;stroke:none" /><g
           transform="matrix(1,0,0,-1,-111.5,340.5)"
           id="g24"><path
             d="m 297.2343,177.6848 c 27.9227,27.9224 27.9227,73.1937 0,101.1161 -27.9224,27.9226 -73.1937,27.9226 -101.1161,0 -27.9226,-27.9224 -27.9226,-73.1937 0,-101.1161 27.9224,-27.9226 73.1937,-27.9226 101.1161,0"
             inkscape:connector-curvature="0"
             id="path26"
             style="fill:none;stroke:#3b3a34;stroke-width:12;stroke-linecap:round;stroke-linejoin:round;stroke-miterlimit:10;stroke-opacity:1;stroke-dasharray:none" /></g><path
           d="m 134.6765,112.7567 51.2706,72.6606 c 48.9421,-4.1034 65.6628,-39.961 37.3468,-80.0904 l -88.6174,7.4298 z"
           inkscape:connector-curvature="0"
           id="path28"
           style="fill:#ffffff;fill-opacity:1;fill-rule:nonzero;stroke:none" /><g
           transform="matrix(1,0,0,-1,-111.5,340.5)"
           id="g30"><path
             d="m 296.2117,185.9846 c -7.2979,7.3223 -7.2979,19.1942 0,26.5165 7.2979,7.3224 19.1302,7.3224 26.4281,0 7.298,-7.3223 7.298,-19.1942 0,-26.5165 -7.2979,-7.3223 -19.1302,-7.3223 -26.4281,0"
             inkscape:connector-curvature="0"
             id="path32"
             style="fill:none;stroke:#ff2f92;stroke-width:12;stroke-linecap:round;stroke-linejoin:round;stroke-miterlimit:10;stroke-opacity:1;stroke-dasharray:none" /></g></g></g></g></svg>